<svg xmlns="http://www.w3.org/2000/svg" style="display:none">

  <!-- dashboard -->
  <symbol id="icon-dashboard" viewBox="0 0 24 24" fill="none" stroke="currentColor" stroke-width="2" stroke-linecap="round" stroke-linejoin="round">
    <rect x="3" y="3" width="7" height="7" rx="1"/><rect x="14" y="3" width="7" height="7" rx="1"/>
    <rect x="3" y="14" width="7" height="7" rx="1"/><rect x="14" y="14" width="7" height="7" rx="1"/>
  </symbol>

  <!-- wallet / saldo -->
  <symbol id="icon-wallet" viewBox="0 0 24 24" fill="none" stroke="currentColor" stroke-width="2" stroke-linecap="round" stroke-linejoin="round">
    <path d="M20 7H4a2 2 0 0 0-2 2v10a2 2 0 0 0 2 2h16a2 2 0 0 0 2-2V9a2 2 0 0 0-2-2z"/>
    <path d="M16 3H8a2 2 0 0 0-2 2v2h12V5a2 2 0 0 0-2-2z"/>
    <circle cx="17" cy="13" r="1" fill="currentColor"/>
  </symbol>

  <!-- deposit / plus -->
  <symbol id="icon-deposit" viewBox="0 0 24 24" fill="none" stroke="currentColor" stroke-width="2" stroke-linecap="round" stroke-linejoin="round">
    <circle cx="12" cy="12" r="10"/>
    <line x1="12" y1="8" x2="12" y2="16"/><line x1="8" y1="12" x2="16" y2="12"/>
  </symbol>

  <!-- withdraw / arrow down -->
  <symbol id="icon-withdraw" viewBox="0 0 24 24" fill="none" stroke="currentColor" stroke-width="2" stroke-linecap="round" stroke-linejoin="round">
    <path d="M12 2v14m0 0l-4-4m4 4l4-4"/>
    <path d="M4 20h16"/>
  </symbol>

  <!-- mining / pickaxe -->
  <symbol id="icon-mining" viewBox="0 0 24 24" fill="none" stroke="currentColor" stroke-width="2" stroke-linecap="round" stroke-linejoin="round">
    <path d="M14.5 2.5l7 7-3 3-7-7 3-3z"/>
    <path d="M11.5 9.5L3 18l3 3 8.5-8.5"/>
    <path d="M14 14l3 3"/>
  </symbol>

  <!-- package / box -->
  <symbol id="icon-package" viewBox="0 0 24 24" fill="none" stroke="currentColor" stroke-width="2" stroke-linecap="round" stroke-linejoin="round">
    <path d="M21 16V8a2 2 0 0 0-1-1.73l-7-4a2 2 0 0 0-2 0l-7 4A2 2 0 0 0 3 8v8a2 2 0 0 0 1 1.73l7 4a2 2 0 0 0 2 0l7-4A2 2 0 0 0 21 16z"/>
    <polyline points="3.27 6.96 12 12.01 20.73 6.96"/><line x1="12" y1="22.08" x2="12" y2="12"/>
  </symbol>

  <!-- referral / users -->
  <symbol id="icon-referral" viewBox="0 0 24 24" fill="none" stroke="currentColor" stroke-width="2" stroke-linecap="round" stroke-linejoin="round">
    <path d="M17 21v-2a4 4 0 0 0-4-4H5a4 4 0 0 0-4 4v2"/>
    <circle cx="9" cy="7" r="4"/>
    <path d="M23 21v-2a4 4 0 0 0-3-3.87"/><path d="M16 3.13a4 4 0 0 1 0 7.75"/>
  </symbol>

  <!-- history / clock -->
  <symbol id="icon-history" viewBox="0 0 24 24" fill="none" stroke="currentColor" stroke-width="2" stroke-linecap="round" stroke-linejoin="round">
    <circle cx="12" cy="12" r="10"/>
    <polyline points="12 6 12 12 16 14"/>
  </symbol>

  <!-- ads / play circle -->
  <symbol id="icon-ads" viewBox="0 0 24 24" fill="none" stroke="currentColor" stroke-width="2" stroke-linecap="round" stroke-linejoin="round">
    <circle cx="12" cy="12" r="10"/>
    <polygon points="10 8 16 12 10 16 10 8" fill="currentColor" stroke="none"/>
  </symbol>

  <!-- gift / daily reward -->
  <symbol id="icon-gift" viewBox="0 0 24 24" fill="none" stroke="currentColor" stroke-width="2" stroke-linecap="round" stroke-linejoin="round">
    <polyline points="20 12 20 22 4 22 4 12"/><rect x="2" y="7" width="20" height="5"/>
    <line x1="12" y1="22" x2="12" y2="7"/>
    <path d="M12 7H7.5a2.5 2.5 0 0 1 0-5C11 2 12 7 12 7z"/>
    <path d="M12 7h4.5a2.5 2.5 0 0 0 0-5C13 2 12 7 12 7z"/>
  </symbol>

  <!-- mission / target -->
  <symbol id="icon-mission" viewBox="0 0 24 24" fill="none" stroke="currentColor" stroke-width="2" stroke-linecap="round" stroke-linejoin="round">
    <circle cx="12" cy="12" r="10"/><circle cx="12" cy="12" r="6"/><circle cx="12" cy="12" r="2"/>
  </symbol>

  <!-- leaderboard / trophy -->
  <symbol id="icon-leaderboard" viewBox="0 0 24 24" fill="none" stroke="currentColor" stroke-width="2" stroke-linecap="round" stroke-linejoin="round">
    <path d="M6 9H4.5a2.5 2.5 0 0 1 0-5H6"/><path d="M18 9h1.5a2.5 2.5 0 0 0 0-5H18"/>
    <path d="M4 22h16"/><path d="M10 14.66V17c0 .55-.47.98-.97 1.21C7.85 18.75 7 20.24 7 22"/>
    <path d="M14 14.66V17c0 .55.47.98.97 1.21C16.15 18.75 17 20.24 17 22"/>
    <path d="M18 2H6v7a6 6 0 0 0 12 0V2z"/>
  </symbol>

  <!-- calendar -->
  <symbol id="icon-calendar" viewBox="0 0 24 24" fill="none" stroke="currentColor" stroke-width="2" stroke-linecap="round" stroke-linejoin="round">
    <rect x="3" y="4" width="18" height="18" rx="2" ry="2"/><line x1="16" y1="2" x2="16" y2="6"/>
    <line x1="8" y1="2" x2="8" y2="6"/><line x1="3" y1="10" x2="21" y2="10"/>
  </symbol>

  <!-- bell / notification -->
  <symbol id="icon-bell" viewBox="0 0 24 24" fill="none" stroke="currentColor" stroke-width="2" stroke-linecap="round" stroke-linejoin="round">
    <path d="M18 8A6 6 0 0 0 6 8c0 7-3 9-3 9h18s-3-2-3-9"/>
    <path d="M13.73 21a2 2 0 0 1-3.46 0"/>
  </symbol>

  <!-- chat / message -->
  <symbol id="icon-chat" viewBox="0 0 24 24" fill="none" stroke="currentColor" stroke-width="2" stroke-linecap="round" stroke-linejoin="round">
    <path d="M21 15a2 2 0 0 1-2 2H7l-4 4V5a2 2 0 0 1 2-2h14a2 2 0 0 1 2 2z"/>
  </symbol>

  <!-- vip / diamond -->
  <symbol id="icon-vip" viewBox="0 0 24 24" fill="none" stroke="currentColor" stroke-width="2" stroke-linecap="round" stroke-linejoin="round">
    <path d="M6 3l-4 6 10 12L22 9l-4-6H6z"/><path d="M2 9h20"/><path d="M12 21L8 9m4 12l4-12"/>
  </symbol>

  <!-- voucher / ticket -->
  <symbol id="icon-voucher" viewBox="0 0 24 24" fill="none" stroke="currentColor" stroke-width="2" stroke-linecap="round" stroke-linejoin="round">
    <path d="M2 9a3 3 0 0 1 0 6v2a2 2 0 0 0 2 2h16a2 2 0 0 0 2-2v-2a3 3 0 0 1 0-6V7a2 2 0 0 0-2-2H4a2 2 0 0 0-2 2v2z"/>
    <line x1="9" y1="12" x2="15" y2="12" stroke-dasharray="2 2"/>
  </symbol>

  <!-- profile / user -->
  <symbol id="icon-profile" viewBox="0 0 24 24" fill="none" stroke="currentColor" stroke-width="2" stroke-linecap="round" stroke-linejoin="round">
    <path d="M20 21v-2a4 4 0 0 0-4-4H8a4 4 0 0 0-4 4v2"/>
    <circle cx="12" cy="7" r="4"/>
  </symbol>

  <!-- security / shield -->
  <symbol id="icon-security" viewBox="0 0 24 24" fill="none" stroke="currentColor" stroke-width="2" stroke-linecap="round" stroke-linejoin="round">
    <path d="M12 22s8-4 8-10V5l-8-3-8 3v7c0 6 8 10 8 10z"/>
  </symbol>

  <!-- bank -->
  <symbol id="icon-bank" viewBox="0 0 24 24" fill="none" stroke="currentColor" stroke-width="2" stroke-linecap="round" stroke-linejoin="round">
    <line x1="3" y1="22" x2="21" y2="22"/><line x1="6" y1="18" x2="6" y2="11"/>
    <line x1="10" y1="18" x2="10" y2="11"/><line x1="14" y1="18" x2="14" y2="11"/>
    <line x1="18" y1="18" x2="18" y2="11"/>
    <polygon points="12 2 20 7 4 7"/>
  </symbol>

  <!-- faq / help -->
  <symbol id="icon-faq" viewBox="0 0 24 24" fill="none" stroke="currentColor" stroke-width="2" stroke-linecap="round" stroke-linejoin="round">
    <circle cx="12" cy="12" r="10"/>
    <path d="M9.09 9a3 3 0 0 1 5.83 1c0 2-3 3-3 3"/>
    <line x1="12" y1="17" x2="12.01" y2="17"/>
  </symbol>

  <!-- info -->
  <symbol id="icon-info" viewBox="0 0 24 24" fill="none" stroke="currentColor" stroke-width="2" stroke-linecap="round" stroke-linejoin="round">
    <circle cx="12" cy="12" r="10"/>
    <line x1="12" y1="8" x2="12" y2="8"/><line x1="12" y1="12" x2="12" y2="16"/>
  </symbol>

  <!-- contact / phone -->
  <symbol id="icon-contact" viewBox="0 0 24 24" fill="none" stroke="currentColor" stroke-width="2" stroke-linecap="round" stroke-linejoin="round">
    <path d="M22 16.92v3a2 2 0 0 1-2.18 2A19.79 19.79 0 0 1 11.61 19 19.5 19.5 0 0 1 5 12.39 19.79 19.79 0 0 1 2.12 4.22 2 2 0 0 1 4.11 2h3a2 2 0 0 1 2 1.72c.127.96.361 1.903.7 2.81a2 2 0 0 1-.45 2.11L8.09 9.91a16 16 0 0 0 6 6l1.27-1.27a2 2 0 0 1 2.11-.45c.907.339 1.85.573 2.81.7A2 2 0 0 1 22 16.92z"/>
  </symbol>

  <!-- settings / gear -->
  <symbol id="icon-settings" viewBox="0 0 24 24" fill="none" stroke="currentColor" stroke-width="2" stroke-linecap="round" stroke-linejoin="round">
    <circle cx="12" cy="12" r="3"/>
    <path d="M19.4 15a1.65 1.65 0 0 0 .33 1.82l.06.06a2 2 0 0 1-2.83 2.83l-.06-.06a1.65 1.65 0 0 0-1.82-.33 1.65 1.65 0 0 0-1 1.51V21a2 2 0 0 1-4 0v-.09A1.65 1.65 0 0 0 9 19.4a1.65 1.65 0 0 0-1.82.33l-.06.06a2 2 0 0 1-2.83-2.83l.06-.06A1.65 1.65 0 0 0 4.68 15a1.65 1.65 0 0 0-1.51-1H3a2 2 0 0 1 0-4h.09A1.65 1.65 0 0 0 4.6 9a1.65 1.65 0 0 0-.33-1.82l-.06-.06a2 2 0 0 1 2.83-2.83l.06.06A1.65 1.65 0 0 0 9 4.68a1.65 1.65 0 0 0 1-1.51V3a2 2 0 0 1 4 0v.09a1.65 1.65 0 0 0 1 1.51 1.65 1.65 0 0 0 1.82-.33l.06-.06a2 2 0 0 1 2.83 2.83l-.06.06A1.65 1.65 0 0 0 19.4 9a1.65 1.65 0 0 0 1.51 1H21a2 2 0 0 1 0 4h-.09a1.65 1.65 0 0 0-1.51 1z"/>
  </symbol>

  <!-- logout -->
  <symbol id="icon-logout" viewBox="0 0 24 24" fill="none" stroke="currentColor" stroke-width="2" stroke-linecap="round" stroke-linejoin="round">
    <path d="M9 21H5a2 2 0 0 1-2-2V5a2 2 0 0 1 2-2h4"/>
    <polyline points="16 17 21 12 16 7"/>
    <line x1="21" y1="12" x2="9" y2="12"/>
  </symbol>

  <!-- search -->
  <symbol id="icon-search" viewBox="0 0 24 24" fill="none" stroke="currentColor" stroke-width="2" stroke-linecap="round" stroke-linejoin="round">
    <circle cx="11" cy="11" r="8"/>
    <line x1="21" y1="21" x2="16.65" y2="16.65"/>
  </symbol>

  <!-- check-circle -->
  <symbol id="icon-check-circle" viewBox="0 0 24 24" fill="none" stroke="currentColor" stroke-width="2" stroke-linecap="round" stroke-linejoin="round">
    <path d="M22 11.08V12a10 10 0 1 1-5.93-9.14"/>
    <polyline points="22 4 12 14.01 9 11.01"/>
  </symbol>

  <!-- x-circle -->
  <symbol id="icon-x-circle" viewBox="0 0 24 24" fill="none" stroke="currentColor" stroke-width="2" stroke-linecap="round" stroke-linejoin="round">
    <circle cx="12" cy="12" r="10"/>
    <line x1="15" y1="9" x2="9" y2="15"/><line x1="9" y1="9" x2="15" y2="15"/>
  </symbol>

  <!-- alert-triangle -->
  <symbol id="icon-alert-triangle" viewBox="0 0 24 24" fill="none" stroke="currentColor" stroke-width="2" stroke-linecap="round" stroke-linejoin="round">
    <path d="M10.29 3.86L1.82 18a2 2 0 0 0 1.71 3h16.94a2 2 0 0 0 1.71-3L13.71 3.86a2 2 0 0 0-3.42 0z"/>
    <line x1="12" y1="9" x2="12" y2="13"/><line x1="12" y1="17" x2="12.01" y2="17"/>
  </symbol>

  <!-- copy -->
  <symbol id="icon-copy" viewBox="0 0 24 24" fill="none" stroke="currentColor" stroke-width="2" stroke-linecap="round" stroke-linejoin="round">
    <rect x="9" y="9" width="13" height="13" rx="2" ry="2"/>
    <path d="M5 15H4a2 2 0 0 1-2-2V4a2 2 0 0 1 2-2h9a2 2 0 0 1 2 2v1"/>
  </symbol>

  <!-- arrow-right -->
  <symbol id="icon-arrow-right" viewBox="0 0 24 24" fill="none" stroke="currentColor" stroke-width="2" stroke-linecap="round" stroke-linejoin="round">
    <line x1="5" y1="12" x2="19" y2="12"/>
    <polyline points="12 5 19 12 12 19"/>
  </symbol>

  <!-- trending-up -->
  <symbol id="icon-trending-up" viewBox="0 0 24 24" fill="none" stroke="currentColor" stroke-width="2" stroke-linecap="round" stroke-linejoin="round">
    <polyline points="23 6 13.5 15.5 8.5 10.5 1 18"/>
    <polyline points="17 6 23 6 23 12"/>
  </symbol>

  <!-- menu / hamburger -->
  <symbol id="icon-menu" viewBox="0 0 24 24" fill="none" stroke="currentColor" stroke-width="2" stroke-linecap="round" stroke-linejoin="round">
    <line x1="3" y1="6" x2="21" y2="6"/><line x1="3" y1="12" x2="21" y2="12"/><line x1="3" y1="18" x2="21" y2="18"/>
  </symbol>

  <!-- x / close -->
  <symbol id="icon-x" viewBox="0 0 24 24" fill="none" stroke="currentColor" stroke-width="2" stroke-linecap="round" stroke-linejoin="round">
    <line x1="18" y1="6" x2="6" y2="18"/><line x1="6" y1="6" x2="18" y2="18"/>
  </symbol>

  <!-- eye / show -->
  <symbol id="icon-eye" viewBox="0 0 24 24" fill="none" stroke="currentColor" stroke-width="2" stroke-linecap="round" stroke-linejoin="round">
    <path d="M1 12s4-8 11-8 11 8 11 8-4 8-11 8-11-8-11-8z"/>
    <circle cx="12" cy="12" r="3"/>
  </symbol>

  <!-- eye-off -->
  <symbol id="icon-eye-off" viewBox="0 0 24 24" fill="none" stroke="currentColor" stroke-width="2" stroke-linecap="round" stroke-linejoin="round">
    <path d="M17.94 17.94A10.07 10.07 0 0 1 12 20c-7 0-11-8-11-8a18.45 18.45 0 0 1 5.06-5.94"/>
    <path d="M9.9 4.24A9.12 9.12 0 0 1 12 4c7 0 11 8 11 8a18.5 18.5 0 0 1-2.16 3.19"/>
    <line x1="1" y1="1" x2="23" y2="23"/>
  </symbol>

  <!-- upload -->
  <symbol id="icon-upload" viewBox="0 0 24 24" fill="none" stroke="currentColor" stroke-width="2" stroke-linecap="round" stroke-linejoin="round">
    <polyline points="16 16 12 12 8 16"/>
    <line x1="12" y1="12" x2="12" y2="21"/>
    <path d="M20.39 18.39A5 5 0 0 0 18 9h-1.26A8 8 0 1 0 3 16.3"/>
  </symbol>

  <!-- share -->
  <symbol id="icon-share" viewBox="0 0 24 24" fill="none" stroke="currentColor" stroke-width="2" stroke-linecap="round" stroke-linejoin="round">
    <circle cx="18" cy="5" r="3"/><circle cx="6" cy="12" r="3"/><circle cx="18" cy="19" r="3"/>
    <line x1="8.59" y1="13.51" x2="15.42" y2="17.49"/>
    <line x1="15.41" y1="6.51" x2="8.59" y2="10.49"/>
  </symbol>

  <!-- coin -->
  <symbol id="icon-coin" viewBox="0 0 24 24" fill="none" stroke="currentColor" stroke-width="2" stroke-linecap="round" stroke-linejoin="round">
    <circle cx="12" cy="12" r="10"/>
    <path d="M12 6v2m0 8v2M9 9h4a2 2 0 0 1 0 4H9"/>
  </symbol>

  <!-- noxara logo icon -->
  <symbol id="icon-noxara" viewBox="0 0 40 40">
    <defs>
      <linearGradient id="nox-grad" x1="0%" y1="0%" x2="100%" y2="100%">
        <stop offset="0%" style="stop-color:#00D4FF"/>
        <stop offset="100%" style="stop-color:#7B2FFF"/>
      </linearGradient>
    </defs>
    <polygon points="20,2 38,11 38,29 20,38 2,29 2,11" fill="none" stroke="url(#nox-grad)" stroke-width="2.5"/>
    <polygon points="20,8 32,14 32,26 20,32 8,26 8,14" fill="none" stroke="url(#nox-grad)" stroke-width="1.5" opacity="0.5"/>
    <circle cx="20" cy="20" r="4" fill="url(#nox-grad)"/>
  </symbol>

</svg>
